<?xml version="1.0" encoding="iso-8859-1"?>
<!-- Generator: Adobe Illustrator 19.0.0, SVG Export Plug-In . SVG Version: 6.00 Build 0)  -->
<svg version="1.1" id="Capa_1" xmlns="http://www.w3.org/2000/svg" xmlns:xlink="http://www.w3.org/1999/xlink" x="0px" y="0px"
	 viewBox="0 0 512.002 512.002" style="enable-background:new 0 0 512.002 512.002;" xml:space="preserve">
<path style="fill:#D8D7DA;" d="M477.16,226.661h-20.067c-1.327,0-2.446-0.97-2.654-2.281c-5.262-33.283-18.694-63.846-38.18-89.573
	c-0.813-1.074-0.72-2.574,0.232-3.526l13.777-13.777c10.624-10.624,10.624-28.007,0-38.63l0,0
	c-10.624-10.624-28.007-10.624-38.631,0L377.44,93.07c-0.937,0.937-2.411,1.043-3.483,0.265
	c-26.081-18.945-56.891-31.771-90.329-36.369c-1.335-0.184-2.336-1.313-2.336-2.662V34.84c0-15.024-12.292-27.316-27.316-27.316l0,0
	c-15.024,0-27.316,12.292-27.316,27.316v20.067c0,1.327-0.97,2.446-2.281,2.654c-33.283,5.262-63.846,18.694-89.573,38.18
	c-1.074,0.813-2.574,0.72-3.526-0.232l-13.777-13.777c-10.624-10.624-28.008-10.624-38.631,0l0,0
	c-10.623,10.624-10.623,28.007,0,38.63l14.197,14.197c0.937,0.937,1.043,2.411,0.265,3.483
	c-18.945,26.081-31.771,56.891-36.37,90.328c-0.184,1.335-1.313,2.336-2.662,2.336h-19.46c-15.024,0-27.316,12.292-27.316,27.316
	l0,0c0,15.024,12.292,27.316,27.316,27.316h20.067c1.327,0,2.446,0.97,2.654,2.281c5.262,33.283,18.694,63.847,38.18,89.574
	c0.813,1.074,0.72,2.574-0.232,3.526l-13.777,13.777c-10.624,10.624-10.624,28.007,0,38.63l0,0
	c10.624,10.624,28.007,10.624,38.631,0l14.197-14.197c0.937-0.937,2.411-1.043,3.483-0.265
	c26.081,18.945,56.891,31.771,90.329,36.369c1.335,0.184,2.336,1.313,2.336,2.662v19.46c0,15.024,12.292,27.316,27.316,27.316h0.001
	c15.024,0,27.316-12.292,27.316-27.316v-20.067c0-1.327,0.97-2.446,2.281-2.654c33.283-5.262,63.846-18.694,89.573-38.18
	c1.074-0.813,2.574-0.72,3.526,0.232l13.777,13.777c10.624,10.624,28.007,10.624,38.631,0l0,0c10.623-10.624,10.623-28.007,0-38.631
	l-14.197-14.197c-0.937-0.937-1.043-2.411-0.265-3.483c18.945-26.081,31.771-56.891,36.37-90.329
	c0.184-1.335,1.313-2.336,2.662-2.336h19.46c15.024,0,27.316-12.292,27.316-27.316l0,0
	C504.476,238.953,492.184,226.661,477.16,226.661z"/>
<circle style="fill:#ACABB1;" cx="256.004" cy="256.003" r="145.684"/>
<path style="fill:#57565C;" d="M279.948,361.634c-2.227,0.502-4.454,0.933-6.682,1.294c-56.032,9.1-110.179-26.867-122.9-82.98
	c-13.223-58.34,23.346-116.359,81.686-129.582c13.986-3.17,27.951-3.481,41.294-1.294c42.298,6.862,78.235,38.626,88.287,82.98
	C374.857,290.392,338.288,348.411,279.948,361.634z"/>
<path style="fill:#787680;" d="M279.948,361.634c-2.227,0.502-4.454,0.933-6.682,1.294c-42.298-6.862-78.235-38.626-88.287-82.98
	c-13.223-58.34,23.346-116.359,81.686-129.582c2.227-0.502,4.454-0.933,6.682-1.294c42.298,6.862,78.235,38.626,88.287,82.98
	C374.857,290.392,338.288,348.411,279.948,361.634z"/>
<path d="M477.159,219.136h-15.974c-5.499-30.746-18.023-60.142-36.421-85.49c5.938-7.391,20.995-15.343,20.995-35.46
	c0-19.295-15.504-34.806-34.807-34.806c-20.13,0-28.236,15.258-35.938,21.473c-25.7-17.893-55.336-29.833-86.197-34.727V34.841
	C288.817,15.63,273.188,0,253.977,0c-19.212,0-34.841,15.63-34.841,34.841v15.974c-30.749,5.499-60.146,18.026-85.49,36.422
	c-7.391-5.938-15.343-20.995-35.46-20.995c-19.296,0-34.806,15.504-34.806,34.807c0,20.129,15.259,28.236,21.473,35.937
	c-17.895,25.704-29.835,55.34-34.727,86.197H34.842C15.63,223.183,0,238.813,0,258.025c0,19.211,15.63,34.84,34.841,34.84h15.973
	c1.574,8.809,3.726,17.553,6.415,26.05c1.252,3.963,5.482,6.161,9.443,4.905c3.962-1.253,6.159-5.481,4.905-9.443
	c-2.874-9.091-5.09-18.488-6.583-27.933c-0.792-4.999-5.033-8.628-10.085-8.628H34.842c-10.914,0-19.792-8.879-19.792-19.792
	c0-10.913,8.879-19.791,19.792-19.791h19.46c5.073,0,9.421-3.796,10.115-8.836c4.3-31.266,16.404-61.326,35.006-86.932
	c1.278-1.762,1.954-3.84,1.954-6.013c0-6.897-5.43-8.627-17.185-21.409c-7.69-7.692-7.694-20.296-0.001-27.989
	c3.718-3.717,8.687-5.764,13.995-5.764c5.309,0,10.279,2.047,13.995,5.764l13.773,13.772c1.926,1.93,4.49,2.992,7.216,2.992
	c2.211,0,4.402-0.734,6.179-2.077c25.233-19.113,55.042-31.821,86.209-36.748c4.999-0.792,8.628-5.033,8.628-10.085V34.841
	c0-10.914,8.879-19.792,19.792-19.792c10.913,0,19.791,8.879,19.791,19.792v19.46c0,5.077,3.799,9.425,8.836,10.115
	c31.267,4.301,61.328,16.405,86.938,35.01c4.021,2.914,9.625,2.562,13.219-1.036l14.198-14.198
	c3.715-3.716,8.685-5.763,13.994-5.763c17.83,0,26.206,21.544,13.995,33.753c-11.533,12.565-16.764,14.119-16.764,20.989
	c0,2.215,0.736,4.41,2.077,6.179c19.113,25.233,31.82,55.043,36.747,86.209c0.792,4.999,5.033,8.628,10.085,8.628h20.067
	c10.914,0,19.792,8.879,19.792,19.792c0,10.913-8.879,19.791-19.792,19.791H457.7c-5.073,0-9.421,3.796-10.115,8.836
	c-4.3,31.265-16.404,61.326-35.01,86.94c-1.275,1.761-1.947,3.836-1.947,6.005c0,6.897,5.325,8.516,17.183,21.409
	c3.717,3.718,5.764,8.687,5.764,13.995c0,18.035-21.646,26.108-33.753,13.996c-12.565-11.533-14.119-16.764-20.989-16.764
	c-2.215,0-4.41,0.736-6.179,2.077c-25.235,19.114-55.045,31.821-86.209,36.747c-4.999,0.792-8.628,5.034-8.628,10.086v20.066
	c0,10.914-8.879,19.792-19.792,19.792c-10.913,0-19.791-8.879-19.791-19.792v-19.46c0-5.073-3.796-9.421-8.836-10.115
	c-31.265-4.3-61.326-16.404-86.94-35.01c-4.036-2.923-9.631-2.545-13.218,1.038l-14.196,14.197
	c-3.716,3.717-8.686,5.764-13.995,5.764c-18.029,0-26.109-21.642-13.995-33.754c11.541-12.576,16.764-14.116,16.764-20.99
	c0-7.48-7.391-8.986-21.462-37.601c-1.834-3.727-6.341-5.265-10.073-3.432c-3.729,1.834-5.266,6.344-3.432,10.073
	c5.226,10.629,11.4,20.865,18.384,30.486l-10.823,10.822c-21.826,21.829-6.358,59.444,24.637,59.444
	c20.129,0,28.23-15.254,35.938-21.474c25.704,17.895,55.341,29.835,86.197,34.727v15.284c0,19.211,15.63,34.841,34.841,34.841
	s34.84-15.63,34.84-34.841v-15.974c30.744-5.498,60.14-18.022,85.49-36.421c7.391,5.938,15.343,20.995,35.46,20.995
	c19.297,0,34.806-15.505,34.806-34.808c0-20.128-15.259-28.236-21.473-35.937c17.895-25.704,29.835-55.341,34.727-86.197h15.284
	c19.211,0,34.841-15.629,34.841-34.84S496.371,219.136,477.159,219.136z"/>
<path d="M256,102.79c-84.677,0-153.21,68.523-153.21,153.21c0,84.678,68.521,153.21,153.21,153.21
	c126.401,0,195.944-143.164,124.52-242.513c-2.427-3.375-7.128-4.142-10.502-1.718c-3.374,2.426-4.143,7.127-1.718,10.502
	c64.424,89.612,1.62,218.68-112.301,218.68c-76.357,0-138.161-61.79-138.161-138.161c0-76.36,61.795-138.161,138.161-138.161
	c34.703,0,67.864,12.899,93.372,36.322c3.061,2.81,7.82,2.609,10.632-0.453c2.811-3.061,2.608-7.82-0.453-10.632
	C331.258,117.098,294.483,102.79,256,102.79z"/>
<path d="M160.555,288.41c-1.33-3.938-5.599-6.047-9.538-4.717c-3.937,1.33-6.049,5.601-4.717,9.538
	c29.714,87.884,144.504,105.68,200.604,34.573c39.833-50.491,30.836-123.31-19.099-162.707
	c-77.566-61.193-192.557-2.777-187.515,96.635c0.21,4.151,3.72,7.351,7.895,7.134c4.15-0.21,7.344-3.743,7.134-7.895
	c-0.085-1.682-0.128-3.39-0.129-5.071c0-47.335,32.292-87.714,78.528-98.196c53.93-12.229,108.058,20.78,120.578,76.011
	c12.229,53.93-20.78,108.058-76.011,120.578C227.75,365.753,177.06,337.222,160.555,288.41z"/>
<path d="M254.751,308.757c-14.203,0-19.855-6.093-23.984-10.545c-2.212-2.384-3.959-4.266-6.53-4.266
	c-4.265,0-7.92,5.041-7.92,9.168c0,7.334,11.71,18.676,30.918,21.287v9.052c0,4.834,3.932,8.766,8.766,8.766
	c4.834,0,8.766-3.932,8.766-8.766v-9.228c19.681-3.211,30.918-17.183,30.918-38.601c0-25.671-14.526-34.296-35.698-42.075
	c-13.155-4.834-23.547-8.651-23.547-21.81c0-14.989,12.676-18.135,23.31-18.135c15.571,0,20.251,6.781,24.983,6.781
	c5.153,0,7.739-5.877,7.739-9.168c0-8.36-15.873-12.395-27.705-13.263v-9.41c0-4.834-3.932-8.766-8.766-8.766
	c-4.834,0-8.766,3.932-8.766,8.766v10.52c-17.886,3.833-27.705,15.757-27.705,33.745c0,45.561,59.245,26.838,59.245,63.885
	C278.775,301.129,270.468,308.757,254.751,308.757z"/>
<g>
</g>
<g>
</g>
<g>
</g>
<g>
</g>
<g>
</g>
<g>
</g>
<g>
</g>
<g>
</g>
<g>
</g>
<g>
</g>
<g>
</g>
<g>
</g>
<g>
</g>
<g>
</g>
<g>
</g>
</svg>
